<?xml version="1.0" encoding="UTF-8"?>
<svg id="Layer_1" data-name="Layer 1" xmlns="http://www.w3.org/2000/svg" viewBox="0 0 376.01 324.86">
  <defs>
    <style>
      .cls-1 {
        fill: #151618;
      }

      .cls-2 {
        fill: #111215;
      }

      .cls-3 {
        fill: #fad53f;
      }

      .cls-4 {
        fill: #060511;
      }

      .cls-5 {
        fill: #050711;
      }

      .cls-6 {
        fill: #fefefe;
      }

      .cls-7 {
        fill: #d9b3a1;
      }

      .cls-8 {
        fill: #706c6b;
      }

      .cls-9 {
        fill: #161719;
      }

      .cls-10 {
        fill: #f15723;
      }

      .cls-11 {
        fill: #090708;
      }

      .cls-12 {
        fill: #ccc046;
      }

      .cls-13 {
        fill: #1f1c0e;
      }

      .cls-14 {
        fill: #050818;
      }

      .cls-15 {
        fill: #060708;
      }

      .cls-16 {
        fill: #ef5839;
      }

      .cls-17 {
        fill: #040a17;
      }

      .cls-18 {
        fill: #a93e28;
      }

      .cls-19 {
        fill: #180c0c;
      }

      .cls-20 {
        fill: #f7d642;
      }

      .cls-21 {
        fill: #14120a;
      }

      .cls-22 {
        fill: #05040f;
      }

      .cls-23 {
        fill: #040610;
      }

      .cls-24 {
        fill: #030b1b;
      }

      .cls-25 {
        fill: #050607;
      }

      .cls-26 {
        fill: #221e0d;
      }

      .cls-27 {
        fill: #ab3f28;
      }

      .cls-28 {
        fill: #6d6968;
      }

      .cls-29 {
        fill: #18150c;
      }

      .cls-30 {
        fill: #1b190b;
      }

      .cls-31 {
        fill: #706c6c;
      }

      .cls-32 {
        fill: #9e9896;
      }

      .cls-33 {
        fill: #06050f;
      }

      .cls-34 {
        fill: #050413;
      }

      .cls-35 {
        fill: #f58020;
      }

      .cls-36 {
        fill: #dfac94;
      }

      .cls-37 {
        fill: #a83e28;
      }

      .cls-38 {
        fill: #040b1d;
      }

      .cls-39 {
        fill: #15130a;
      }

      .cls-40 {
        fill: #24100f;
      }

      .cls-41 {
        fill: #0b0b0d;
      }

      .cls-42 {
        fill: #060607;
      }

      .cls-43 {
        fill: #0b0d0f;
      }

      .cls-44 {
        fill: #af9531;
      }

      .cls-45 {
        fill: #feffff;
      }

      .cls-46 {
        fill: #9e9897;
      }

      .cls-47 {
        fill: #6c6868;
      }

      .cls-48 {
        fill: #220f0c;
      }

      .cls-49 {
        fill: #ef5838;
      }

      .cls-50 {
        fill: #af9631;
      }

      .cls-51 {
        fill: #0a0a0d;
      }
    </style>
  </defs>
  <path class="cls-42" d="M175.25,17.96l-1.08.24c-.88,5.91-.1,12.13,2.35,18.66-6.51,7.1-9.13,17.95-10.57,27.36l1.48,1.44c-2.53,4.57-1.2,9.92.1,14.8,3.11,11.69,10.72,21.72,20.57,28.62-.37,1.36-.23,2.53.45,3.51l-2.39,1.16c-6.32,8.91-11.72,18.85-13.9,29.45-3.36-1.36-7.18-4.7-6.74-8.69,1.78-7.05,1.6-14.5-.72-21.46l-2.07-1.25c2.4-2.82-2.33-9.13-5.07-10.95-4-2.66-12.65-4.4-16.91-1.59-1.39.92-6.25,8.18-3.83,9.41-3.85,2.61-.68,9.9,2.72,12.42,4.96,1,6.9,3.74,5.83,8.23-2.68,13.22-1.38,23.01,11.38,30.4-9.28-5.22-18.93-10.04-28.95-14.49-14.38-6.59-16.83,3.62-12.86,15.53l5.89,13.17c-.13.74-7.42,5.9-7.84,5.66-2.18-3.9-20.13-24.93-22.62-25.19-4.38-.45-6.18,5.2-6.83,8.66-1.48-3.27-3.26-4.98-5.36-5.13-2.44-.32-4.03-6.7-5.85-6.25-2.02.5-1.78,6.99-2.35,8.6-3.69-2.39-20.1-19.55-22.68-19.58-.65,0-1.96.72-1.96,1.2v19.16c-4.45.11-8.43-.84-12.94-.81-2.48.01-16.85.69-17.59,1.17-3.59,2.35,7.54,12.57,6.98,14.73-.51,1.98-5.79,4.27-7.67,5.7S.44,192.03.16,192.87c-.31.92-.15,1.77.29,2.62.6,1.18,12.45,9.19,14.55,10.48,1.52.93,10.08,4.79,10.09,5.54-6.6,9.35-23.17,21.5.8,19.95-.59,1.54-1.72,3.34-1.56,5.05.12,1.26,1.47,2.19,1.56,2.76.85,1.08,1.88,1.76,3.22,1.45l17.58-2.79c-1.16,4.45-2.46,10.09,4.14,9.59l27.97-12.02c-2.6,3.69.19,8.59,4.64,8.44s21.04-12.91,24.88-16.58c10.17,11.07,20.63,21.86,31.38,32.37,4.7,5.13,10.03,8.74,16.01,10.82,3.92,2.65,14.59,8.04,16.74,11.02,2.75,3.8,4.79,12.54,3,16.93-2.88,7.08-19.86,8.55-21.26,17.85-.87,5.79,1.94,7.55,7.38,8.16,9.4,1.05,20.58-.64,29.8-1.48,7.47-.68,19.39-.74,26.32-2.62,8.15-2.21,11.3-18.45,17.52-23.93,14.4-1.05,28.68.31,42.66-3.49,15.44-4.19,33.46-9.69,48.75-14.6,19.61-6.29,54.18-23.52,48.85-48.52-.91-4.24-2.88-7.08-4.69-10.95-15.14-27.33-42.86-46.43-70.99-59.07-.69-.31-1.49-.37-2.33-.43s-1.69-.01-2.54.07l-.91-1.49c-8.67-3.64-17.49-7.11-26.46-10.41-2.61-8.66-4.91-17.4-6.88-26.23,9.43-2.95,15.96-7.34,22.49-14.75,2.89-2.35,6.78-1.49,11.67,2.6,2.98,2.18,8.46.46,4.79-2.12,1.29-2.21-.17-4.23-4.36-6.04-6.85-1.7-5.81-4.11.61-4.99,15.39,3.86,15.91-8.33-.45-6.14.92-7.16,2.31-12.48,9.5-16.04,8.41-8.06,2.99-19.71-3.97-26.73l-4.3-8.03c2.22-2.29,2.42-5.19.62-8.67.29-5.99-.52-11.05-.85-16.8-.22-3.84,1.74-8.88-2.63-12.18-4.62-3.49-13.63-.04-18.41,2.01-2.47,1.06-9.94,6.25-10.55,6.34-1.65.22-13.11-3.14-16.54-3.51-11.53-1.26-19.93,1.65-30.64,4.36-9.82,2.49-13.06-2.63-21.75-3.6-3.9-.43-13.39-.7-16.31,2.3-1.28,1.32-4.06,6.79-4.33,8.57Z"/>
  <path class="cls-5" d="M97.05,123.54c-.14.14-1.3-.23-1.53.04-.39.47.87,2.3.75,3.08,2.95,1.25,22.65,2.41,23.46,1.56.11-.11.11-3.01,0-3.12-.81-.85-19.76,1.49-22.68-1.57Z"/>
  <path class="cls-14" d="M100.18,116.5c-1.21-.04-2.05-.25-3.12-.78-.29,1.36.45,1.78,1.56,2.35,3.02,1.53,18.17,1.88,19.95.01,3.04-3.18-6.39-1.55-7.02-1.54-3.77.04-7.61.08-11.37-.04Z"/>
  <path class="cls-33" d="M127.55,269.78c-4.21-1.07-10.24-2.92-14.48-2.35-1.07.14-2.33.44-1.16,1.56,7.48,1.76,14.46,5.09,22.28,5.49,1.44-1.28-.71-3.33-1.95-3.92-1.53-.73-3.36-.44-4.69-.78Z"/>
  <path class="cls-22" d="M111.13,279.17c-1.24,1.3.26,1.32,1.14,1.58,3.61,1.06,7.79,1.4,11.55,2.54,1.64.49,6.95,4.4,7.64,1.73.59-2.27-2.71-3.63-4.34-4.25-2.5-.95-14.5-3.15-15.99-1.59Z"/>
  <path class="cls-34" d="M152.57,297.15v2.34c2.78-.8,10.52,4.11,11.73,1.17.24-.59.3-1.51-.49-1.95-1.32-.73-10.59-2.23-11.24-1.56Z"/>
  <path class="cls-4" d="M154.92,290.88c3.26,1.59,11.05,3.9,10.94-1.55-3.55,1.95-8.81-1.32-10.94,1.55Z"/>
  <path class="cls-32" d="M279.66,79.74c-4.43-.47-11.37-2.63-14.84-5.5-14.22-11.77.69-26.4,14.27-27.92,1.27-.14,2.39.53,3.61.49,3.77-.13,7.24-1.28,11.42.08.67-3.1-2.32-5.29-2.41-8.24-.07-2.35,1.38-3.31,1.67-5.4.49-3.48.39-23.59-.63-26.04-2.54-6.07-15.69.14-19.69,2.58-1.67,1.02-6.51,5.72-7.49,5.63-.57-.05-1.37-1.58-2.53-1.97-11.31-3.83-23.18-3.8-34.78-1.54-3.96.77-13.24,4.56-15.86,4.56-3.47,0-10.48-3.75-15.09-4.54-9.56-1.63-18.23-1.29-17.93,10.89.1,4.31,3.94,13.1,3.55,15.69-.18,1.19-5.72,7.76-7.04,10.96-7.13,17.27-4.89,34.24,7.7,48.3,1.82.02,23-5.42,22.96-3.57-.03,1.47-1.25,1.88-2.35,2.34-2.32.97-14.94,3.38-15.64,4.31-2.61,3.47,14.61,5.08,13.25,9.66-1.05,3.53-4.9.74-5.96.61-2.4-.29-4.98,7.34-6.16,9.23-3.63,5.77-8.01,10.55-10.1,17.27-3.17,10.16-2.46,30.59,5.58,38.17,8.51,8.02,27.19,8.71,30.23,20.6.73,2.84.11,9.73,2.07,11.23,2.22,1.7,3.19-4.1,5.75-4.17,4.06-.12-.09,6.93,5.62,6.94,2.71,0,1.09-6.55,3.89-6.92,3.02-.4,1.94,8.3,6.72,4.18,5.19-4.46,3.16-23.57-1.25-27.87-.75-.73-6.16.55-7.79-3.09-2.25-5.03,2.07-9.94,1.78-11.97-.48-3.34-9.26-9.85-10.38-12.27-.8-1.74-.77-4.76,1.57-4.71,1.46.03,12.38,13.82,14.83,15.69,2.01,4.24-1.92,2.6-3.33,5.24-4.63,8.72,4.91,6.95,9.61,3.53,2.17.67,1.08,2.61,1.61,3.65,2.98,5.78,12.97,8,12.07-1.09-.22-2.16-4.51-3.91-3.91-7.43,1.52-1.06,13.17,4.46,11.61-4.12-1.17-6.44-10.55-6.11-15.36-5.44l-9.79-24.22c-2.03-3.31.87-5.54,2.99-2.99,1.89,2.28,2.7,12.01,5.9,14.44,2.01,1.53,8.22,1.62,10.91,2,1.02-1.03-4.69-21.33-5.7-24.4-.6-1.79-3.09-3.41-1.4-5.59.59-.76,14.42-5.67,17.54-7.68,1.47-.94,7.71-6.07,8.38-7.26,1.15-2.07.34-4.5,2.7-5.91.7,3.89,3.49-.45,3.54-1.95.02-.43-1.22-.44-1.31-.6-1.8-3.06,1.5-1.71,3.09-2.27,2.43-.86,4.85-8.85,4.44-11.6-3.9-.3-8.29.41-12.12,0Z"/>
  <path class="cls-3" d="M156.48,168.11c-1.79,1.03-5.27,5.11-4.3,0-3.76,1.57-7.14,3.92-10.82,5.61-5.32,2.44-12.31,4.51-17.16,7.08-.95.5-7.96,5.05-8.21,5.47-.33.56-2.5,10.94-2.75,12.49-.95,6.07-1.78,19.51.43,25.06,1.5,3.76,22.8,25.09,27.15,29.15,21.38,19.95,61.01,38.19,90.39,36.44.4-.02-.03,1.36,1.46,1.54,8.5,1.04,18.32-1.89,27.03-.86-5.13-22.49-8.53-46.1-3.69-68.99,2.14-10.14,5.44-22.28,9.17-31.89l-.58-.87c-5.19,3.24-10.52,4.73-15.99,4.47l-1.42,1.1c.25,3.54-.5,10.06-1.95,13.3-1.56,3.5-6.51,5.81-6.65,6.25-.65.09-1.34.39-1.37.96-.13,3.01-2.17,6.62-5.7,7.13-1.92.28-18.54-1.73-20.39-2.82-2.98-1.75-4.78-4.85-5.13-8.27.9-7.04-1.26-11.52-6.46-13.43-15.37-3.75-26.38-9.18-31.2-25.8-3.84-2.43-7.8-3.47-11.87-3.13Z"/>
  <path class="cls-49" d="M316.02,254.14c4.54.67,8.04-3.4,12.48-3.09.72,6.48,2.73,13.04,1.6,19.51,1.98,1.95,20.75-8.99,23.72-11.08,13.55-9.54,22.7-20.02,13.36-36.56-12.6-22.33-41.76-44.09-64.71-54.94-2.07-.98-15.65-6.73-16.58-6.63-.78.08-1.81,1.45-2.26,2.15-14.46,22.41-26.03,59.69-25.29,86.3.37,13.35,2.96,26.55,6.16,39.43,3.65,2.36,35.94-10.27,42.18-11.33l-.84-9.69-10.51,4.69c-.91-.24-3.73-13.78-7.06-16.44-1.21-.97-.49-.74-1.58,0-2.1,1.43-5.63,6.38-8.51,5.44-3.17-1.05.35-11.57.3-14.02-.49-.48-7.68,3.06-8.61-.56-.72-2.82,3.73-20.26,5.11-23.67,1.11-2.76,11.35-16.03,13.95-15.53,4.03.77-.17,7.19-.83,9.89-.91,3.71-1.26,7.28-1.02,11.11l12.43-1.48.83,15.19c2.06,2.46,15.68-4.56,15.68-.81v12.12Z"/>
  <path class="cls-10" d="M50.13,165.77c-9.76.02-19.19-1.71-28.93,0-.41,3.59,8.31,9.75,7.77,12.04-.22.91-13.3,8.58-15.53,10.31-1.45,1.12-7.12,5.63-7.11,6.97,0,.67,9.69,6.93,11.04,7.75,1.96,1.18,13.46,6.19,13.86,6.85,2.04,3.29-5.06,7.64-6.9,9.67s-3.75,4.83-5.48,7.03c2.88,1.7,8.59-1.08,10.91-.02,5.12,2.32-1.1,6.4.04,7.44l22.19-3.73c3.67,1.73,1.28,5.1,1.24,8.02-.04,2.76,2.2.04,3.5-.42,9.08-3.24,12.35-5.87,20.21-9.51,3.14-1.46,4.84.77,3.68-5.69-.67-3.72-4.6.09-7.41,1.19-1.76.69-11.23,4.03-12.14,3.11-.88-3.42,1.78-5.46,1.56-8.6l-12.01,2.4c-1.48-.29-1.09-5.32-1.29-5.53-.66-.7-21.25,2.05-15.63-4.28,2.13-2.4,8.13-5.42,10.91-7.91,1.38-1.23,2.03-2.98,3.95-3.86.4-1.54-10.72-10.02-5.47-12.5.85-.4,12.39-1.75,14.47-1.95,2.95-.28,5.99.22,8.94-.05,1.67-7.61-1.47-13.46,7.81-7.33,1.09.72,7.93,7.36,8.66,6.59-1.02-3.35.41-5.41-.54-9.24-1.1-4.46-4.86-8.44-6.51-12.65-2.72-.48-.8,1.22-1.11,3.15s-.61,4.49-3.05,3.77l-20.47-20.22c-2.65-.16-1.16,2.83-1.16,3.51v13.69Z"/>
  <path class="cls-49" d="M227.65,299.5l.38-1.93c-13.79-2.17-27.48-5.18-41.06-9.03-2.32-1.67-4.79-1.63-5.14,1.61,2.72,7.56,1.66,12.97-3.18,16.24l-11.09,6.65c-8.79,7.04-2.03,7.02,5.36,6.02,9.95.08,16.22-1.07,25.69-2.14,5.07-.57,14.74-.36,19.1-1.94,1.89-.69,8.68-12.89,9.95-15.47Z"/>
  <path class="cls-44" d="M156.48,168.11l10.76,4.09c2.95,8.52,7.6,17.13,16.07,21.08,4.34,2.03,17.45,4.69,19.76,7.61s.22,8.77,2.28,13.36c3.75,8.37,10.15,7.07,17.21,7.82,6.32.67,10.29,3.51,15.25-3.53,2.42-3.44.62-4.55.79-5.08-1.57.54-3.22-1.65-4.2-1.49-1.34.22-1.72,3.27-5.56,3.12-4.22-.17-5.96-3.96-6.35-4-1.56-.15-4.42,2.25-6.56,1.24-3.17-1.5-3.22-10.9-4.48-14.35-3.07-8.42-11.42-8.64-18.49-12.01-9.84-4.68-17.57-11.83-18.54-23.3-2.9,1.41-8.69-1-10.43-.66-1.43.28-2.48,3.51-3.96,4.56-.9.64-2.33.83-3.55,1.53Z"/>
  <path class="cls-6" d="M312.11,247.49c-.6-2.14-5,.08-6.73.31-3.13.4-6.5.46-9.66.83-1.26-5.12.52-10.35-.04-15.6-2.78-.35-10.37,3.41-12.12,1.59s-.36-11.37.39-14.09c-1.82-.5-1.31.44-1.79.99-5.14,5.92-5.14,14.51-7.59,21.68,12.77-3.14,6.86,4.81,6.26,12.52,3.12-.29,5.44-6.67,8.1-6.15,1.56.31,8.54,14.25,8.32,17.1,1.25,1.12,8.31-4.62,10.98-2.79,1.74,1.19,2.68,10.61,2.32,12.95,3.45-.86,14.91-1.97,15.64-5.86.3-1.61-.16-13.04-.79-13.69-1.68.03-13.29,5.09-13.29,1.96,0-2.73.55-9.76,0-11.73Z"/>
  <path class="cls-35" d="M71.25,180.63c-.25,2.26.97,6.98-1.56,8.21-3.15,1.53-16.05-.01-20.36,1.54-1.15.91-.51.84-.13,1.72,1.21,2.76,6.07,5.28,4.74,9.12-.58,1.69-9.53,6.74-10.85,9.12,2.98.49,9.95-1.14,11.8,1.13.67.83.42,2.64,1.18,2.85,5.66,1.53,16.97-7.78,11.27,6.98.36.45,7.57-3.98,8.56-4.34,1.48-.54,4.43.04,5.18-1.08.23-.35,1.02-7.03,1.11-8.27.39-5.58-.48-11.29.44-16.86-.28-2.25-2.75-1.37-4.14-2.51-.41-.34-5.69-9.42-7.24-7.6Z"/>
  <path class="cls-45" d="M292.76,50.21c-7.58-1.27-29.87,2.62-29.67,12.58.2,9.86,16.05,12.34,23.59,12.33,4.69,0,13.63-3.59,15.44-8.09,2.69-6.69-2.22-15.62-9.37-16.82Z"/>
  <path class="cls-16" d="M94.7,167.33c-2.78-.56-3.99,11.28-3.32,11.63,1.12-.57,2.25-.32,3.32.1l.02,1.71c10.92,4.35,10.77,7.45,0,.62l-1.59.8c-3.24-.45-4.21,5.69-1.56,7.04,1.27,1.31,1.27,2.09,0,2.35-.45.48-.88.97-1.22,1.51-1.48,2.38-3.21,37.73-1.45,38.55.64.3,1.29.16,1.89-.18,3.87-2.43,12.23-6.25,13.73-10.9,1.05-3.25-.97-13.16-.4-18.4.61-5.66,2.62-11.65,3.81-17.24-.04-3.1-10.59-14.78-13.22-17.58Z"/>
  <path class="cls-46" d="M141.63,109.46c-.1,2.15.4,4.34,2.37,5.51,6.7,1.95,7.96,4.72,8.31,11.07-1.13,14.59-1.35,25.8,15.25,30.09,4.62,1.61,6.41.91,5.36-2.1-.02-.98,1.23-3.24.77-3.88-.34-.48-7.9-3.12-10.32-5.5-6.15-6.05-2.06-13.75-2.23-20.6-.11-4.44-3.51-16.85-7.96-18.69-3.7-1.53-9.69.56-11.53,4.1Z"/>
  <path class="cls-37" d="M227.65,299.5c.47-.96,3.17-2.93.27-3.79-2.37-.7-7.95-.57-11.25-1.26-7.72-1.62-17.37-4.12-25-6.29-4.26-1.21-8.24-3.18-12.51-4.3.54,5.2,3.17,12.65.68,17.49-3.22,6.26-12.08,7.77-17.37,11.57-10.12,7.27,4.98,7.91,10.43,6.13-2.82-.02-5.85.34-8.6-.39,3.28-6.33,16.76-9.8,19.45-14.96,2.5-4.8-.3-9.17-.38-13.53-.05-2.75,1.79-.54,3.25-.1,13.09,3.97,24.02,5.84,37.49,7.87,1.38.21,2.71.14,3.53,1.56Z"/>
  <path class="cls-16" d="M125.2,150.91c-4.77-2.07-3.23,4.53-2.31,7.69.96,3.31,4.54,10.21,6.61,12.98l1.96.45c3.51-1.41,15.28-5.14,17.23-7.4.59-.68,1-.89.75-1.97-8.26-3.8-15.63-8.91-24.24-11.74Z"/>
  <path class="cls-50" d="M268.32,170.46c-2.17,2.24-6,2.14-6.27,2.35-.57.45,2.06,10.69-5.24,12.34-6.44,1.46-10.66-2.2-14.3-6.87,1.51,5.17,4.29,10.15,4.68,15.64,4.31,2.11,8.82-.12,12.81-1.66l5.18-3.03c1.59-4.09,3.53-8.57,5.47-12.51.6-2.37.81-6.22-2.35-6.26Z"/>
  <path class="cls-27" d="M94.7,167.33c-.61-.65-3.3-5.03-4.31-3.14-1.17,2.18-2.49,13.04-2.72,16.05-.64,8.28.35,16.82.02,25.05-.17,4.29-3.14,27.3-1.59,29.29,1.84-.52,3.24-2.22,4.68-3.13-1.3-.81-.78-2.97-.8-4.29-.13-12.67.15-23.08,1.58-35.59,2.18-.47,1.9-1.45,0-2.35.26-1.97-.18-5.12,1.56-7.04-.05-1.22.47-2.26,1.56-3.13-.74-.34-1.32-1-2.35-.81l2.35-10.93Z"/>
  <path class="cls-31" d="M141.63,109.46c-.77,1.48-.77,4.8.16,6.09.76,1.04,5.53,1.29,6.84,2.16,5.55,3.65.82,18.15,1.58,24.23,1.14,9.11,14.64,17.69,23.48,16.01.74-1.36-.78-3.5-.79-3.91.4,2.3-1.05,1.68-2.54,1.38-1.87-.37-9.34-3.59-11.03-4.63-9.46-5.83-3.87-21.55-7.18-30.36-2.15-5.72-8.15-4.9-10.53-10.97Z"/>
  <path class="cls-20" d="M262.84,153.25c-.68.22-.67.48,0,.78,6.03,2.26,10.36,11.38,5.47,16.42l2.35,6.26c2.71-5.51,7.1-10.93,9.2-16.84-.12-.8-12.01-5.62-13.9-6.25-1.19-.39-2.41-.15-3.12-.37Z"/>
  <path class="cls-18" d="M125.2,150.91c-1.55-.51-3.17-2.22-5.47-1.57-1.53,7.76,1.93,11.25,4.83,17.46,1.17,2.51,1.31,5.61,3.38,7.55.96-.8,2.4-1.88,3.52-2.33-2.78-6-7.64-11.44-7.85-18.38-.05-1.47-.67-3.19,1.6-2.73Z"/>
  <path class="cls-12" d="M262.84,153.25c-3.48-1.07-6.93-2.99-10.96-2.73.64,4.08,1.6,2.15,4,2.41,2.24.25,4.87.32,6.95,1.1v-.78Z"/>
  <path class="cls-38" d="M146.32,69.57c-1.33.09-2.21-.21-3.11,1.17.06,2.39,9.53,2.09,11.31,1.95,3.09-.25,7.89-.88,3.53-3.9-4.24.49-7.64.51-11.73.78Z"/>
  <path class="cls-17" d="M143.97,39.85c3.49-.33,6.77,1.86,10.16.78,2.07-2.66-9.52-3.7-10.16-.78Z"/>
  <path class="cls-24" d="M140.85,45.33c-2.61,2.11,8.58,3.6,8.58,1.17,0-1.81-7.14-1.06-8.58-1.17Z"/>
  <path class="cls-23" d="M137.72,80.53c-.15.18-.27,1.88.45,2.41,3.36,2.47,18.13-2.26,23.01-.85v-2.34c-2.01.42-4.11-.8-5.91-.81-4.46-.03-10.1,2.06-14.11,2.32-1.01.07-3.23-.96-3.44-.73Z"/>
  <path class="cls-15" d="M197.93,75.83c.14,2.27,2.46,3.62,3.91,1.56.93.25,2.82.58,3.91.78.21,2.22,2.99,2.85,3.67.71l1.81.07c.26.02.52-.01.78,0,.88,2.2,2.29,2.26,3.13,0,5.18-.74,14.77-4.83,17.37-9.61,5.81-10.7,1.32-21.27-10.92-23.03-10.97-1.58-27.09-1.06-31.1,11.52-2.1,6.6,1.55,14.65,7.45,17.99Z"/>
  <path class="cls-25" d="M242.7,71.33c-2.42,2.73.27,3.77.52,4.33,1.31,2.87,2.65,7.14-.28,9.62-2.34,1.99-4.52-3.1-6.97-2.37-1.09.32-2.39,3.86-3.24,3.85-.33,0-4.08-4.2-5.42-3.88-.74.17-6.46,7.42-5.56,9.35,2.2,4.77,4.92-2.77,6.37-3.08,1.85.05,2.45,2.59,3.99,2.99,3.13.8,4.73-3.72,5.31-3.79,1.45-.18,4.93,7.58,9.39-.78,1.42.75,2.88,5,4.61,4.64,1.97-.41,2.73-5.86,4.73-5.41.91.2,5.27,5.46,7.08,5.47,2.43.02,4.59-5.52,6.26-7.06,1.22,3.12,6.44,5.07,6.3.77-2.79-.58-5.15-5.98-7.08-6.29-1.67-.26-3.94,6.2-5.5,7.07-6.31-4.18-6.95-8.74-12.87-.78-3.17-4.33,6.09-10.79,4.28-14.89-.94-2.13-10.76-1.09-11.92.23Z"/>
  <path class="cls-51" d="M283.33,13.45c-4.1-.91-14.33,2.73-10.38,8.09.31.42,7.16,6.37,7.95,6.91,12.04,8.36,12.39-12.79,2.43-15Z"/>
  <path class="cls-41" d="M187.08,31.15c2.72,1.69,13.25-6.44,10.52-10.12-1.19-1.61-14.19-5.31-13.74,1.95.04.6,2.84,7.93,3.22,8.17Z"/>
  <path class="cls-43" d="M205.75,85.22c-.67-.78-6.42-.21-7.84-.39-5.18-.67-10.39-2.13-15.64-2.38-4.57-.22-3.85,2.25-.36,3.53,3.41,1.25,20.41,3.78,23.05,1.97.82-.56,1.17-2.28.79-2.72Z"/>
  <path class="cls-28" d="M212.01,78.96c.22,4.04-.66,9.96,0,13.68.49,2.78,3.41,2.78,3.9,0,.62-3.51.14-10.15-.78-13.68-.89.13-2.17.04-3.13,0Z"/>
  <path class="cls-9" d="M234.69,118.83c3.03,1.12,8.51,1.69,8.59-2.72-.82-2.66-9-.9-8.59,2.72Z"/>
  <path class="cls-47" d="M205.75,78.18c-1.69,3.17,2.2,10.71,3.79,5.74.91-2.84-2.42-5.69,1.68-4.96-.75-.05-4.43-.59-5.47-.78Z"/>
  <path class="cls-8" d="M197.93,75.83c-1.1,4.91,3.66,7.14,3.91,1.56-.51-.14-3.49-1.33-3.91-1.56Z"/>
  <path class="cls-21" d="M225.3,251.79c-7.23-.66-3.9,10.67-3.85,15.25.02,1.71-2.02,6.85,1.91,6.6,3.23-.21,1.06-11.52,1.1-13.65.05-2.77,1.19-5.39.84-8.2Z"/>
  <path class="cls-30" d="M218.26,271.34c1.01-1-2.69-12.64-1.52-15.13l-2-1.28c-3.43,3.64-.81,8.97.2,13.1.2.8-.54,2.05-.24,2.56.55.92,3.3,1.01,3.56.76Z"/>
  <path class="cls-39" d="M202.68,254.18c-2.1,1.36-.95,11.36-.04,13.63.36.92.6,2.24,1.94,1.96,2.47-.52.37-6.5.33-8.21-.03-1.34,2.13-10.2-2.23-7.38Z"/>
  <path class="cls-26" d="M143.18,225.2c-6.5-1.36-3.74,12.47-1.17,12.49,2.21.02.06-10.6,1.17-12.49Z"/>
  <path class="cls-29" d="M137.71,223.64c-.23-.22-2.51-.06-3.15.36-1.61,1.03-2.46,9.35-.35,9.8s3.9-9.77,3.5-10.16Z"/>
  <path class="cls-13" d="M127.54,228.32c.35-.27,2.65-8.53-.37-7.81-2.51.6-2.47,10.04.37,7.81Z"/>
  <path class="cls-11" d="M324.29,197.38c-1.53-1.79-10.86-12.36-11.76-12.9-3.19-1.9-8.75,4.21-10.59,6.7-3.62,4.89-4.81,12.81-1.9,18.32.42.8,6.17,7.92,6.99,8.66,7.22,6.5,23.67,7.42,31.61,1.91,4.17-2.9-1.15-5.24-3.05-7.79-3.75-5.03-7.18-10.09-11.3-14.9Z"/>
  <path class="cls-1" d="M287.27,58.03c-5.78,5.78,8.3,11.98,8.23,1.6-.02-3.32-6.6-3.23-8.23-1.6Z"/>
  <path class="cls-19" d="M94.7,179.06c-3.69-.56-4.6.97-1.56,3.13,2.11,1.5,9.64,6.71,11.73,3.9,1.72-2.32-8.93-6.47-10.16-7.03Z"/>
  <path class="cls-48" d="M91.57,189.23c-.15,1.18.05,1.94,0,2.35,2.55,1.39,12.91,5.73,10.99-.34-.39-1.24-9.23-2.61-10.99-2Z"/>
  <path class="cls-40" d="M99.66,203.43c-1.36-.43-7.09-.64-6.52,1.81,3.22,4.93,11.56-.24,6.52-1.81Z"/>
  <path class="cls-45" d="M220.82,50.21c-4.38-.74-15.72.04-19.52,2-6.82,3.52-10.71,11.01-4.1,16.92,7,6.26,25.96,6.26,31.12-2.41,4.59-7.72,1.45-15.01-7.5-16.51Z"/>
  <path class="cls-36" d="M286.3,26.56c.62-8.34-1.15-11.65-9.38-7.41-.32,1.51,8.33,8.5,9.38,7.41Z"/>
  <polygon class="cls-7" points="188.55 22.66 189.72 26.56 192.45 22.66 188.55 22.66"/>
  <path class="cls-6" d="M310.95,189.37c-11.31,6.15-9.55,18.75.12,25.54,4.32,3.03,17.21,5.55,21.37,2.08,1.31-1.09.42-.74.02-1.56-1.61-3.34-19.71-26.05-21.52-26.06Z"/>
  <path class="cls-2" d="M201.25,62.35c2.91,2.91,9.37.42,5.19-5.58-4.1-5.9-8.41,2.37-5.19,5.58Z"/>
</svg>